<svg id="visual" viewBox="0 0 900 300" width="900" height="300" xmlns="http://www.w3.org/2000/svg" xmlns:xlink="http://www.w3.org/1999/xlink" version="1.1"><g stroke-width="1" stroke-linejoin="bevel"><path d="M410 120L307 128L338 173Z" fill="#424b5c" stroke="#424b5c"></path><path d="M338 173L418 217L410 120Z" fill="#738daa" stroke="#738daa"></path><path d="M307 128L233 160L338 173Z" fill="#424b5c" stroke="#424b5c"></path><path d="M338 173L338 300L418 217Z" fill="#7a97b5" stroke="#7a97b5"></path><path d="M479 61L406 0L410 120Z" fill="#5e6f88" stroke="#5e6f88"></path><path d="M410 120L406 0L307 128Z" fill="#5e6f88" stroke="#5e6f88"></path><path d="M307 128L219 130L233 160Z" fill="#495367" stroke="#495367"></path><path d="M568 185L479 61L410 120Z" fill="#495367" stroke="#495367"></path><path d="M290 0L219 130L307 128Z" fill="#738daa" stroke="#738daa"></path><path d="M406 0L290 0L307 128Z" fill="#7a97b5" stroke="#7a97b5"></path><path d="M479 61L480 0L406 0Z" fill="#6c839e" stroke="#6c839e"></path><path d="M231 300L338 300L338 173Z" fill="#57667d" stroke="#57667d"></path><path d="M338 300L438 300L418 217Z" fill="#657993" stroke="#657993"></path><path d="M418 217L534 226L410 120Z" fill="#657993" stroke="#657993"></path><path d="M438 300L534 226L418 217Z" fill="#505c72" stroke="#505c72"></path><path d="M479 61L597 0L480 0Z" fill="#7a97b5" stroke="#7a97b5"></path><path d="M233 160L231 300L338 173Z" fill="#3b4252" stroke="#3b4252"></path><path d="M76 226L231 300L233 160Z" fill="#7a97b5" stroke="#7a97b5"></path><path d="M534 226L568 185L410 120Z" fill="#424b5c" stroke="#424b5c"></path><path d="M290 0L174 0L219 130Z" fill="#5e6f88" stroke="#5e6f88"></path><path d="M219 130L76 226L233 160Z" fill="#3b4252" stroke="#3b4252"></path><path d="M438 300L535 300L534 226Z" fill="#657993" stroke="#657993"></path><path d="M534 226L618 300L568 185Z" fill="#495367" stroke="#495367"></path><path d="M626 64L597 0L479 61Z" fill="#81a1c1" stroke="#81a1c1"></path><path d="M674 86L626 64L568 185Z" fill="#495367" stroke="#495367"></path><path d="M568 185L626 64L479 61Z" fill="#424b5c" stroke="#424b5c"></path><path d="M174 0L75 97L219 130Z" fill="#738daa" stroke="#738daa"></path><path d="M174 0L100 0L75 97Z" fill="#3b4252" stroke="#3b4252"></path><path d="M75 97L76 226L219 130Z" fill="#495367" stroke="#495367"></path><path d="M535 300L618 300L534 226Z" fill="#424b5c" stroke="#424b5c"></path><path d="M76 226L98 300L231 300Z" fill="#3b4252" stroke="#3b4252"></path><path d="M705 177L674 86L568 185Z" fill="#424b5c" stroke="#424b5c"></path><path d="M626 64L704 0L597 0Z" fill="#57667d" stroke="#57667d"></path><path d="M618 300L705 177L568 185Z" fill="#81a1c1" stroke="#81a1c1"></path><path d="M0 0L0 78L75 97Z" fill="#3b4252" stroke="#3b4252"></path><path d="M75 97L0 179L76 226Z" fill="#3b4252" stroke="#3b4252"></path><path d="M76 226L0 300L98 300Z" fill="#6c839e" stroke="#6c839e"></path><path d="M0 78L0 179L75 97Z" fill="#738daa" stroke="#738daa"></path><path d="M779 109L704 0L674 86Z" fill="#81a1c1" stroke="#81a1c1"></path><path d="M674 86L704 0L626 64Z" fill="#57667d" stroke="#57667d"></path><path d="M100 0L0 0L75 97Z" fill="#495367" stroke="#495367"></path><path d="M0 179L0 300L76 226Z" fill="#495367" stroke="#495367"></path><path d="M618 300L731 300L705 177Z" fill="#495367" stroke="#495367"></path><path d="M705 177L779 109L674 86Z" fill="#5e6f88" stroke="#5e6f88"></path><path d="M835 215L779 109L705 177Z" fill="#57667d" stroke="#57667d"></path><path d="M779 109L781 0L704 0Z" fill="#7a97b5" stroke="#7a97b5"></path><path d="M731 300L835 215L705 177Z" fill="#505c72" stroke="#505c72"></path><path d="M779 109L900 0L781 0Z" fill="#657993" stroke="#657993"></path><path d="M731 300L838 300L835 215Z" fill="#3b4252" stroke="#3b4252"></path><path d="M900 173L779 109L835 215Z" fill="#5e6f88" stroke="#5e6f88"></path><path d="M900 173L900 115L779 109Z" fill="#424b5c" stroke="#424b5c"></path><path d="M900 300L900 173L835 215Z" fill="#3b4252" stroke="#3b4252"></path><path d="M900 115L900 0L779 109Z" fill="#6c839e" stroke="#6c839e"></path><path d="M838 300L900 300L835 215Z" fill="#6c839e" stroke="#6c839e"></path></g></svg>