<svg id="visual" viewBox="0 0 960 540" width="960" height="540" xmlns="http://www.w3.org/2000/svg" xmlns:xlink="http://www.w3.org/1999/xlink" version="1.1"><g stroke-width="1" stroke-linejoin="bevel"><path d="M468.7 300L518.3 387L527.3 290Z" fill="#313744" stroke="#313744"></path><path d="M468.7 300L458.7 377L518.3 387Z" fill="#434c5d" stroke="#434c5d"></path><path d="M458.7 377L514.3 406L518.3 387Z" fill="#4c566a" stroke="#4c566a"></path><path d="M624 425L601 313L518.3 387Z" fill="#434c5d" stroke="#434c5d"></path><path d="M518.3 387L601 313L527.3 290Z" fill="#3a4251" stroke="#3a4251"></path><path d="M458.7 377L456.7 455L514.3 406Z" fill="#495366" stroke="#495366"></path><path d="M601 313L570.3 221L527.3 290Z" fill="#2e3440" stroke="#2e3440"></path><path d="M527.3 290L426.7 185L468.7 300Z" fill="#404859" stroke="#404859"></path><path d="M552.3 540L624 425L514.3 406Z" fill="#313744" stroke="#313744"></path><path d="M514.3 406L624 425L518.3 387Z" fill="#3d4555" stroke="#3d4555"></path><path d="M570.3 221L426.7 185L527.3 290Z" fill="#3d4555" stroke="#3d4555"></path><path d="M468.7 300L318 331L458.7 377Z" fill="#2e3440" stroke="#2e3440"></path><path d="M458.7 377L292 430L456.7 455Z" fill="#3d4555" stroke="#3d4555"></path><path d="M624 425L681 318L601 313Z" fill="#4c566a" stroke="#4c566a"></path><path d="M601 313L716.7 234L570.3 221Z" fill="#404859" stroke="#404859"></path><path d="M338 230L318 331L468.7 300Z" fill="#3a4251" stroke="#3a4251"></path><path d="M426.7 185L338 230L468.7 300Z" fill="#4c566a" stroke="#4c566a"></path><path d="M456.7 455L552.3 540L514.3 406Z" fill="#313744" stroke="#313744"></path><path d="M300 540L440.7 540L456.7 455Z" fill="#313744" stroke="#313744"></path><path d="M456.7 455L440.7 540L552.3 540Z" fill="#3a4251" stroke="#3a4251"></path><path d="M644 166L498.3 121L570.3 221Z" fill="#343b48" stroke="#343b48"></path><path d="M570.3 221L498.3 121L426.7 185Z" fill="#434c5d" stroke="#434c5d"></path><path d="M426.7 185L358 166L338 230Z" fill="#373e4c" stroke="#373e4c"></path><path d="M716.7 234L644 166L570.3 221Z" fill="#373e4c" stroke="#373e4c"></path><path d="M337 117L358 166L431.7 60Z" fill="#404859" stroke="#404859"></path><path d="M213.3 324L292 430L318 331Z" fill="#3a4251" stroke="#3a4251"></path><path d="M318 331L292 430L458.7 377Z" fill="#495366" stroke="#495366"></path><path d="M681 318L716.7 234L601 313Z" fill="#343b48" stroke="#343b48"></path><path d="M552.3 540L678 540L624 425Z" fill="#495366" stroke="#495366"></path><path d="M624 425L765.7 396L681 318Z" fill="#4c566a" stroke="#4c566a"></path><path d="M681 318L765.7 396L716.7 234Z" fill="#3d4555" stroke="#3d4555"></path><path d="M678 540L765.7 396L624 425Z" fill="#2e3440" stroke="#2e3440"></path><path d="M431.7 60L358 166L426.7 185Z" fill="#464f62" stroke="#464f62"></path><path d="M358 166L222.3 205L338 230Z" fill="#495366" stroke="#495366"></path><path d="M206.3 244L213.3 324L318 331Z" fill="#404859" stroke="#404859"></path><path d="M498.3 121L431.7 60L426.7 185Z" fill="#343b48" stroke="#343b48"></path><path d="M533.3 0L431.7 60L498.3 121Z" fill="#2e3440" stroke="#2e3440"></path><path d="M814.3 472L784.7 408L765.7 396Z" fill="#495366" stroke="#495366"></path><path d="M887.3 231L779.7 191L716.7 234Z" fill="#2e3440" stroke="#2e3440"></path><path d="M292 430L300 540L456.7 455Z" fill="#464f62" stroke="#464f62"></path><path d="M746.7 122L602 64L644 166Z" fill="#434c5d" stroke="#434c5d"></path><path d="M644 166L602 64L498.3 121Z" fill="#3d4555" stroke="#3d4555"></path><path d="M206.3 244L318 331L338 230Z" fill="#313744" stroke="#313744"></path><path d="M292 430L183.3 469L300 540Z" fill="#495366" stroke="#495366"></path><path d="M887.3 231L716.7 234L765.7 396Z" fill="#313744" stroke="#313744"></path><path d="M716.7 234L746.7 122L644 166Z" fill="#373e4c" stroke="#373e4c"></path><path d="M337 117L222.3 205L358 166Z" fill="#313744" stroke="#313744"></path><path d="M222.3 205L206.3 244L338 230Z" fill="#434c5d" stroke="#434c5d"></path><path d="M779.7 191L746.7 122L716.7 234Z" fill="#3d4555" stroke="#3d4555"></path><path d="M678 540L814.3 472L765.7 396Z" fill="#404859" stroke="#404859"></path><path d="M784.7 408L874.3 382L765.7 396Z" fill="#4c566a" stroke="#4c566a"></path><path d="M625 0L533.3 0L602 64Z" fill="#313744" stroke="#313744"></path><path d="M602 64L533.3 0L498.3 121Z" fill="#3d4555" stroke="#3d4555"></path><path d="M678 540L786.7 540L814.3 472Z" fill="#3d4555" stroke="#3d4555"></path><path d="M126.7 335L183.3 469L213.3 324Z" fill="#4c566a" stroke="#4c566a"></path><path d="M213.3 324L183.3 469L292 430Z" fill="#3a4251" stroke="#3a4251"></path><path d="M431.7 60L390.7 0L337 117Z" fill="#434c5d" stroke="#434c5d"></path><path d="M337 117L223.3 75L222.3 205Z" fill="#3a4251" stroke="#3a4251"></path><path d="M533.3 0L390.7 0L431.7 60Z" fill="#404859" stroke="#404859"></path><path d="M741.7 0L625 0L602 64Z" fill="#3a4251" stroke="#3a4251"></path><path d="M222.3 205L139.7 268L206.3 244Z" fill="#4c566a" stroke="#4c566a"></path><path d="M206.3 244L139.7 268L213.3 324Z" fill="#313744" stroke="#313744"></path><path d="M80.7 150L139.7 268L222.3 205Z" fill="#464f62" stroke="#464f62"></path><path d="M960 462L874.3 382L814.3 472Z" fill="#313744" stroke="#313744"></path><path d="M814.3 472L874.3 382L784.7 408Z" fill="#3d4555" stroke="#3d4555"></path><path d="M779.7 191L851.3 140L746.7 122Z" fill="#343b48" stroke="#343b48"></path><path d="M139.7 268L126.7 335L213.3 324Z" fill="#495366" stroke="#495366"></path><path d="M123.7 540L181.3 540L183.3 469Z" fill="#373e4c" stroke="#373e4c"></path><path d="M183.3 469L181.3 540L300 540Z" fill="#4c566a" stroke="#4c566a"></path><path d="M288 0L223.3 75L337 117Z" fill="#3a4251" stroke="#3a4251"></path><path d="M874.3 382L887.3 231L765.7 396Z" fill="#2e3440" stroke="#2e3440"></path><path d="M746.7 122L741.7 0L602 64Z" fill="#404859" stroke="#404859"></path><path d="M887.3 231L851.3 140L779.7 191Z" fill="#343b48" stroke="#343b48"></path><path d="M390.7 0L288 0L337 117Z" fill="#4c566a" stroke="#4c566a"></path><path d="M830.3 0L741.7 0L746.7 122Z" fill="#4c566a" stroke="#4c566a"></path><path d="M126.7 335L107.7 467L183.3 469Z" fill="#4c566a" stroke="#4c566a"></path><path d="M107.7 467L123.7 540L183.3 469Z" fill="#2e3440" stroke="#2e3440"></path><path d="M288 0L231.3 0L223.3 75Z" fill="#434c5d" stroke="#434c5d"></path><path d="M223.3 75L80.7 150L222.3 205Z" fill="#313744" stroke="#313744"></path><path d="M786.7 540L894.3 540L814.3 472Z" fill="#3a4251" stroke="#3a4251"></path><path d="M874.3 382L960 233L887.3 231Z" fill="#313744" stroke="#313744"></path><path d="M960 109L869.3 68L851.3 140Z" fill="#313744" stroke="#313744"></path><path d="M851.3 140L869.3 68L746.7 122Z" fill="#464f62" stroke="#464f62"></path><path d="M960 462L960 398L874.3 382Z" fill="#3d4555" stroke="#3d4555"></path><path d="M887.3 231L960 161L851.3 140Z" fill="#373e4c" stroke="#373e4c"></path><path d="M0 281L0 326L126.7 335Z" fill="#3d4555" stroke="#3d4555"></path><path d="M126.7 335L0 326L107.7 467Z" fill="#3d4555" stroke="#3d4555"></path><path d="M82.7 109L80.7 150L223.3 75Z" fill="#404859" stroke="#404859"></path><path d="M960 398L960 233L874.3 382Z" fill="#3d4555" stroke="#3d4555"></path><path d="M869.3 68L830.3 0L746.7 122Z" fill="#4c566a" stroke="#4c566a"></path><path d="M894.3 540L960 462L814.3 472Z" fill="#495366" stroke="#495366"></path><path d="M123.7 0L82.7 109L223.3 75Z" fill="#313744" stroke="#313744"></path><path d="M960 233L960 161L887.3 231Z" fill="#343b48" stroke="#343b48"></path><path d="M869.3 68L960 0L830.3 0Z" fill="#3d4555" stroke="#3d4555"></path><path d="M894.3 540L960 540L960 462Z" fill="#495366" stroke="#495366"></path><path d="M0 281L139.7 268L80.7 150Z" fill="#3a4251" stroke="#3a4251"></path><path d="M0 281L126.7 335L139.7 268Z" fill="#343b48" stroke="#343b48"></path><path d="M107.7 467L0 540L123.7 540Z" fill="#404859" stroke="#404859"></path><path d="M0 150L0 281L80.7 150Z" fill="#373e4c" stroke="#373e4c"></path><path d="M960 161L960 109L851.3 140Z" fill="#434c5d" stroke="#434c5d"></path><path d="M231.3 0L123.7 0L223.3 75Z" fill="#495366" stroke="#495366"></path><path d="M82.7 109L0 150L80.7 150Z" fill="#3a4251" stroke="#3a4251"></path><path d="M0 326L0 468L107.7 467Z" fill="#3a4251" stroke="#3a4251"></path><path d="M0 51L0 150L82.7 109Z" fill="#3a4251" stroke="#3a4251"></path><path d="M0 468L0 540L107.7 467Z" fill="#2e3440" stroke="#2e3440"></path><path d="M960 109L960 0L869.3 68Z" fill="#2e3440" stroke="#2e3440"></path><path d="M123.7 0L0 51L82.7 109Z" fill="#343b48" stroke="#343b48"></path><path d="M123.7 0L0 0L0 51Z" fill="#434c5d" stroke="#434c5d"></path></g></svg>