<svg id="visual" viewBox="0 0 960 100" width="960" height="100" xmlns="http://www.w3.org/2000/svg" xmlns:xlink="http://www.w3.org/1999/xlink" version="1.1"><path d="M0 25L9.3 25.2C18.7 25.3 37.3 25.7 56.2 25.3C75 25 94 24 112.8 22C131.7 20 150.3 17 169.2 15.7C188 14.3 207 14.7 225.8 14.3C244.7 14 263.3 13 282.2 13C301 13 320 14 338.8 15.2C357.7 16.3 376.3 17.7 395.2 18.8C414 20 433 21 451.8 20.8C470.7 20.7 489.3 19.3 508.2 19.7C527 20 546 22 564.8 23.2C583.7 24.3 602.3 24.7 621.2 23C640 21.3 659 17.7 677.8 17.2C696.7 16.7 715.3 19.3 734.2 19.7C753 20 772 18 790.8 17C809.7 16 828.3 16 847.2 17.3C866 18.7 885 21.3 903.8 22.2C922.7 23 941.3 22 950.7 21.5L960 21L960 0L950.7 0C941.3 0 922.7 0 903.8 0C885 0 866 0 847.2 0C828.3 0 809.7 0 790.8 0C772 0 753 0 734.2 0C715.3 0 696.7 0 677.8 0C659 0 640 0 621.2 0C602.3 0 583.7 0 564.8 0C546 0 527 0 508.2 0C489.3 0 470.7 0 451.8 0C433 0 414 0 395.2 0C376.3 0 357.7 0 338.8 0C320 0 301 0 282.2 0C263.3 0 244.7 0 225.8 0C207 0 188 0 169.2 0C150.3 0 131.7 0 112.8 0C94 0 75 0 56.2 0C37.3 0 18.7 0 9.3 0L0 0Z" fill="#434c5e"></path><path d="M0 56L9.3 53.8C18.7 51.7 37.3 47.3 56.2 49.7C75 52 94 61 112.8 60.2C131.7 59.3 150.3 48.7 169.2 45.7C188 42.7 207 47.3 225.8 50.8C244.7 54.3 263.3 56.7 282.2 54.7C301 52.7 320 46.3 338.8 47.2C357.7 48 376.3 56 395.2 59C414 62 433 60 451.8 56.2C470.7 52.3 489.3 46.7 508.2 44.3C527 42 546 43 564.8 44.7C583.7 46.3 602.3 48.7 621.2 52.7C640 56.7 659 62.3 677.8 62.8C696.7 63.3 715.3 58.7 734.2 56.8C753 55 772 56 790.8 53.2C809.7 50.3 828.3 43.7 847.2 41.3C866 39 885 41 903.8 43.7C922.7 46.3 941.3 49.7 950.7 51.3L960 53L960 19L950.7 19.5C941.3 20 922.7 21 903.8 20.2C885 19.3 866 16.7 847.2 15.3C828.3 14 809.7 14 790.8 15C772 16 753 18 734.2 17.7C715.3 17.3 696.7 14.7 677.8 15.2C659 15.7 640 19.3 621.2 21C602.3 22.7 583.7 22.3 564.8 21.2C546 20 527 18 508.2 17.7C489.3 17.3 470.7 18.7 451.8 18.8C433 19 414 18 395.2 16.8C376.3 15.7 357.7 14.3 338.8 13.2C320 12 301 11 282.2 11C263.3 11 244.7 12 225.8 12.3C207 12.7 188 12.3 169.2 13.7C150.3 15 131.7 18 112.8 20C94 22 75 23 56.2 23.3C37.3 23.7 18.7 23.3 9.3 23.2L0 23Z" fill="#58677e"></path><path d="M0 74L9.3 71.2C18.7 68.3 37.3 62.7 56.2 64.2C75 65.7 94 74.3 112.8 73C131.7 71.7 150.3 60.3 169.2 57.2C188 54 207 59 225.8 63.8C244.7 68.7 263.3 73.3 282.2 70.7C301 68 320 58 338.8 59.3C357.7 60.7 376.3 73.3 395.2 79.2C414 85 433 84 451.8 81.7C470.7 79.3 489.3 75.7 508.2 71.2C527 66.7 546 61.3 564.8 60.3C583.7 59.3 602.3 62.7 621.2 67.8C640 73 659 80 677.8 82.7C696.7 85.3 715.3 83.7 734.2 82.3C753 81 772 80 790.8 76.7C809.7 73.3 828.3 67.7 847.2 65C866 62.3 885 62.7 903.8 64.8C922.7 67 941.3 71 950.7 73L960 75L960 51L950.7 49.3C941.3 47.7 922.7 44.3 903.8 41.7C885 39 866 37 847.2 39.3C828.3 41.7 809.7 48.3 790.8 51.2C772 54 753 53 734.2 54.8C715.3 56.7 696.7 61.3 677.8 60.8C659 60.3 640 54.7 621.2 50.7C602.3 46.7 583.7 44.3 564.8 42.7C546 41 527 40 508.2 42.3C489.3 44.7 470.7 50.3 451.8 54.2C433 58 414 60 395.2 57C376.3 54 357.7 46 338.8 45.2C320 44.3 301 50.7 282.2 52.7C263.3 54.7 244.7 52.3 225.8 48.8C207 45.3 188 40.7 169.2 43.7C150.3 46.7 131.7 57.3 112.8 58.2C94 59 75 50 56.2 47.7C37.3 45.3 18.7 49.7 9.3 51.8L0 54Z" fill="#6c839f"></path><path d="M0 101L9.3 101C18.7 101 37.3 101 56.2 101C75 101 94 101 112.8 101C131.7 101 150.3 101 169.2 101C188 101 207 101 225.8 101C244.7 101 263.3 101 282.2 101C301 101 320 101 338.8 101C357.7 101 376.3 101 395.2 101C414 101 433 101 451.8 101C470.7 101 489.3 101 508.2 101C527 101 546 101 564.8 101C583.7 101 602.3 101 621.2 101C640 101 659 101 677.8 101C696.7 101 715.3 101 734.2 101C753 101 772 101 790.8 101C809.7 101 828.3 101 847.2 101C866 101 885 101 903.8 101C922.7 101 941.3 101 950.7 101L960 101L960 73L950.7 71C941.3 69 922.7 65 903.8 62.8C885 60.7 866 60.3 847.2 63C828.3 65.7 809.7 71.3 790.8 74.7C772 78 753 79 734.2 80.3C715.3 81.7 696.7 83.3 677.8 80.7C659 78 640 71 621.2 65.8C602.3 60.7 583.7 57.3 564.8 58.3C546 59.3 527 64.7 508.2 69.2C489.3 73.7 470.7 77.3 451.8 79.7C433 82 414 83 395.2 77.2C376.3 71.3 357.7 58.7 338.8 57.3C320 56 301 66 282.2 68.7C263.3 71.3 244.7 66.7 225.8 61.8C207 57 188 52 169.2 55.2C150.3 58.3 131.7 69.7 112.8 71C94 72.3 75 63.7 56.2 62.2C37.3 60.7 18.7 66.3 9.3 69.2L0 72Z" fill="#81a1c1"></path></svg>